<mxfile host="app.diagrams.net" modified="2022-12-06T17:00:16.823Z" agent="5.0 (X11; Linux x86_64) AppleWebKit/537.36 (KHTML, like Gecko) Chrome/108.0.0.0 Safari/537.36" version="20.6.0" etag="1WEMZq2R9JVGCFR4owpX" type="github">
  <diagram id="ISA0RliEs95sBQLsU-8t" name="Arch">
    <mxGraphModel dx="945" dy="555" grid="1" gridSize="10" guides="1" tooltips="1" connect="1" arrows="1" fold="1" page="1" pageScale="1" pageWidth="827" pageHeight="1169" math="0" shadow="0">
      <root>
        <mxCell id="0" />
        <mxCell id="1" parent="0" />
        <mxCell id="n00wNhqkPWvZWgpfJ0ZG-1" value="&lt;pre style=&quot;line-height: 0%;&quot;&gt;&lt;br&gt;&lt;/pre&gt;&lt;pre style=&quot;line-height: 0%;&quot;&gt;&lt;br&gt;&lt;/pre&gt;" style="rounded=0;whiteSpace=wrap;html=1;fillColor=#dae8fc;strokeColor=#6c8ebf;align=left;" vertex="1" parent="1">
          <mxGeometry x="189" y="370" width="450" height="280" as="geometry" />
        </mxCell>
        <mxCell id="n00wNhqkPWvZWgpfJ0ZG-10" value="" style="rounded=0;whiteSpace=wrap;html=1;fontSize=8;" vertex="1" parent="1">
          <mxGeometry x="209" y="390" width="160" height="105" as="geometry" />
        </mxCell>
        <mxCell id="n00wNhqkPWvZWgpfJ0ZG-2" value="&lt;pre&gt;&lt;font style=&quot;font-size: 8px;&quot;&gt;Domain&lt;/font&gt;&lt;/pre&gt;" style="text;html=1;strokeColor=none;fillColor=none;align=left;verticalAlign=middle;whiteSpace=wrap;rounded=0;fontSize=11;" vertex="1" parent="1">
          <mxGeometry x="189" y="370" width="40" height="10" as="geometry" />
        </mxCell>
        <mxCell id="n00wNhqkPWvZWgpfJ0ZG-5" value="Payment" style="rounded=1;whiteSpace=wrap;html=1;fontSize=8;fillColor=#fff2cc;strokeColor=#d6b656;" vertex="1" parent="1">
          <mxGeometry x="224" y="410" width="60" height="30" as="geometry" />
        </mxCell>
        <mxCell id="n00wNhqkPWvZWgpfJ0ZG-6" value="Balance" style="rounded=1;whiteSpace=wrap;html=1;fontSize=8;fillColor=#fff2cc;strokeColor=#d6b656;" vertex="1" parent="1">
          <mxGeometry x="294" y="410" width="60" height="30" as="geometry" />
        </mxCell>
        <mxCell id="n00wNhqkPWvZWgpfJ0ZG-7" value="Bank" style="rounded=1;whiteSpace=wrap;html=1;fontSize=8;fillColor=#fff2cc;strokeColor=#d6b656;" vertex="1" parent="1">
          <mxGeometry x="224" y="455" width="60" height="30" as="geometry" />
        </mxCell>
        <mxCell id="n00wNhqkPWvZWgpfJ0ZG-8" value="User" style="rounded=1;whiteSpace=wrap;html=1;fontSize=8;fillColor=#fff2cc;strokeColor=#d6b656;" vertex="1" parent="1">
          <mxGeometry x="294" y="455" width="60" height="30" as="geometry" />
        </mxCell>
        <mxCell id="n00wNhqkPWvZWgpfJ0ZG-11" value="&lt;pre&gt;&lt;span style=&quot;font-size: 8px;&quot;&gt;Entities&lt;/span&gt;&lt;/pre&gt;" style="text;html=1;strokeColor=none;fillColor=none;align=left;verticalAlign=middle;whiteSpace=wrap;rounded=0;fontSize=11;" vertex="1" parent="1">
          <mxGeometry x="209" y="390" width="40" height="10" as="geometry" />
        </mxCell>
        <mxCell id="n00wNhqkPWvZWgpfJ0ZG-19" value="" style="rounded=0;whiteSpace=wrap;html=1;fontSize=8;" vertex="1" parent="1">
          <mxGeometry x="440" y="532" width="160" height="105" as="geometry" />
        </mxCell>
        <mxCell id="n00wNhqkPWvZWgpfJ0ZG-24" value="&lt;pre&gt;&lt;span style=&quot;font-size: 8px;&quot;&gt;Use cases&lt;/span&gt;&lt;/pre&gt;" style="text;html=1;strokeColor=none;fillColor=none;align=left;verticalAlign=middle;whiteSpace=wrap;rounded=0;fontSize=11;" vertex="1" parent="1">
          <mxGeometry x="440" y="532" width="160" height="10" as="geometry" />
        </mxCell>
      </root>
    </mxGraphModel>
  </diagram>
</mxfile>
